<?xml version="1.0" encoding="UTF-8"?>
<svg xmlns="http://www.w3.org/2000/svg" xmlns:xlink="http://www.w3.org/1999/xlink" xmlns:svgjs="http://svgjs.dev/svgjs" version="1.1" width="349.6" height="128">
  <g>
    <svg xmlns="http://www.w3.org/2000/svg" xmlns:xlink="http://www.w3.org/1999/xlink" xmlns:svgjs="http://svgjs.com/svgjs" viewBox="0 0 395.52 97.93571623465209" height="97.93571623465209" width="349.6" version="1.1" x="0" y="15.032141882673955" viewbox="0 0 349.6 128">
      <g>
        <svg viewBox="0 0 395.52 97.93571623465209" height="97.93571623465209" width="395.52">
          <g>
            <svg viewBox="0 0 395.52 97.93571623465209" height="97.93571623465209" width="395.52">
              <g id="textblocktransform">
                <svg viewBox="0 0 395.52 97.93571623465209" height="97.93571623465209" width="395.52" id="textblock">
                  <g>
                    <svg viewBox="0 0 395.52 97.93571623465209" height="97.93571623465209" width="395.52">
                      <g transform="matrix(1,0,0,1,0,0)">
                        <svg width="395.52" viewBox="2.200000047683716 -35.650001525878906 146.58999633789062 36.30000305175781" height="97.93571623465209" data-palette-color="#ee3e38">
                          <path d="M17.05 0L2.2 0 2.2-35 17.05-35Q22.55-35 26.6-32.75 30.65-30.5 32.88-26.55 35.1-22.6 35.1-17.5L35.1-17.5Q35.1-12.4 32.88-8.45 30.65-4.5 26.6-2.25 22.55 0 17.05 0L17.05 0ZM13-26.55L13-8.45 16.45-8.45Q18.7-8.45 20.45-9.53 22.2-10.6 23.2-12.65 24.2-14.7 24.2-17.5L24.2-17.5Q24.2-20.3 23.2-22.33 22.2-24.35 20.45-25.45 18.7-26.55 16.45-26.55L16.45-26.55 13-26.55ZM54.15 0.6L54.15 0.6Q49.6 0.6 46.07-1.18 42.55-2.95 40.55-6.25 38.55-9.55 38.55-14.05L38.55-14.05 38.55-35 49.15-35 49.15-13.6Q49.15-12 49.77-10.73 50.4-9.45 51.52-8.75 52.65-8.05 54.15-8.05L54.15-8.05Q55.7-8.05 56.8-8.75 57.9-9.45 58.52-10.73 59.15-12 59.15-13.6L59.15-13.6 59.15-35 69.75-35 69.75-14.05Q69.75-9.55 67.75-6.25 65.75-2.95 62.25-1.18 58.75 0.6 54.15 0.6ZM100.69 0.65L100.69 0.65Q97.5 0.65 94.67-0.68 91.84-2 90.09-4.55 88.34-7.1 88.34-10.75L88.34-10.75 88.34-24.3Q88.34-24.95 88.07-25.43 87.8-25.9 87.34-26.15 86.89-26.4 86.3-26.4L86.3-26.4Q85.69-26.4 85.22-26.15 84.75-25.9 84.47-25.43 84.19-24.95 84.19-24.3L84.19-24.3 84.19 0 73.89 0 73.89-24.2Q73.89-27.85 75.62-30.4 77.34-32.95 80.19-34.3 83.05-35.65 86.3-35.65L86.3-35.65Q89.55-35.65 92.34-34.3 95.14-32.95 96.89-30.4 98.64-27.85 98.64-24.2L98.64-24.2 98.64-10.65Q98.64-10 98.94-9.5 99.25-9 99.69-8.75 100.14-8.5 100.64-8.5L100.64-8.5Q101.19-8.5 101.69-8.75 102.19-9 102.5-9.5 102.8-10 102.8-10.65L102.8-10.65 102.8-35 113.05-35 113.05-10.75Q113.05-7.1 111.3-4.55 109.55-2 106.72-0.68 103.9 0.65 100.69 0.65ZM128.19 0L117.39 0 117.39-35 128.19-35 128.19-21.6 132.29-21.6Q133.34-21.6 134.17-22.1 134.99-22.6 135.49-23.55 135.99-24.5 135.99-25.8L135.99-25.8 135.99-35 146.79-35 146.79-25.6Q146.79-22.55 145.32-19.98 143.84-17.4 141.39-15.7L141.39-15.7 144.39-9.35Q144.64-8.85 145.09-8.55 145.54-8.25 146.14-8.25L146.14-8.25 148.79-8.25 148.79 0 143.14 0Q139.94 0 138.04-1.13 136.14-2.25 135.14-4.2L135.14-4.2 130.84-13.2Q130.64-13.2 130.44-13.2 130.24-13.2 130.04-13.2L130.04-13.2 128.19-13.2 128.19 0Z" opacity="1" transform="matrix(1,0,0,1,0,0)" fill="#ee3e38" class="undefined-text-0" data-fill-palette-color="primary" id="text-0"></path>
                        </svg>
                      </g>
                    </svg>
                  </g>
                </svg>
              </g>
            </svg>
          </g>
        </svg>
      </g>
      <defs></defs>
    </svg>
  </g>
</svg>
